<!DOCTYPE svg PUBLIC "-//W3C//DTD SVG 1.1//EN" "http://www.w3.org/Graphics/SVG/1.1/DTD/svg11.dtd">
<!-- Uploaded to: SVG Repo, www.svgrepo.com, Transformed by: SVG Repo Mixer Tools -->
<svg height="800px" width="800px" version="1.1" id="Layer_1" xmlns="http://www.w3.org/2000/svg" xmlns:xlink="http://www.w3.org/1999/xlink" viewBox="-62.81 -62.81 518.15 518.15" xml:space="preserve" fill="#000000">
<g id="SVGRepo_bgCarrier" stroke-width="0"/>
<g id="SVGRepo_tracerCarrier" stroke-linecap="round" stroke-linejoin="round"/>
<g id="SVGRepo_iconCarrier"> <path style="fill:#afc1ad;" d="M283.415,283.604c0-48.032-39.111-87.273-87.273-87.273c-48.032,0-87.273,39.111-87.273,87.273 s39.176,87.273,87.337,87.273C244.369,370.812,283.415,331.636,283.415,283.604z"/> <g> <polygon style="fill:#5b6e5b;" points="209.654,117.527 226.72,141.382 230.599,141.382 316.126,21.851 278.114,21.851 "/> <polygon style="fill:#5b6e5b;" points="199.892,141.382 114.365,21.851 76.353,21.851 161.88,141.382 "/> </g> <g> <path style="fill:#394639;" d="M337.266,0.065H272.49c-3.556,0-6.788,1.681-8.857,4.59l-67.362,94.19L128.91,4.59 C126.906,1.745,123.609,0,120.054,0H55.149c-8.469,0-14.222,9.244-8.857,17.261l89.923,125.737 c-3.168,1.939-5.236,5.301-5.236,9.244v44.154c-26.505,19.911-43.766,51.459-43.766,87.079 c0,60.121,48.937,109.059,109.059,109.059S305.33,343.596,305.33,283.475c0-35.62-17.261-67.232-43.766-87.079v-44.154 c0-3.943-2.069-7.37-5.236-9.244l89.859-125.737C351.682,9.438,345.799,0.065,337.266,0.065z M109.064,283.604 c0-48.032,39.111-87.273,87.273-87.273c48.032,0,87.273,39.111,87.273,87.273s-39.176,87.273-87.273,87.273 C148.11,370.812,109.064,331.636,109.064,283.604z M239.714,183.661c-13.317-5.883-27.992-9.115-43.442-9.115 s-30.125,3.232-43.507,9.115v-20.428h87.014v20.428H239.714z M114.365,21.851l85.463,119.531h-38.012L76.353,21.851H114.365z M230.599,141.382h-3.943l-17.002-23.855l68.461-95.677h38.012L230.599,141.382z"/> <path style="fill:#394639;" d="M166.664,244.299c-4.719,3.814-5.495,10.667-1.681,15.321c3.814,4.719,10.667,5.495,15.321,1.681 l6.465-5.172v66.586h-13.317c-6.012,0-10.925,4.848-10.925,10.925s4.848,10.925,10.925,10.925h45.446 c6.012,0,10.925-4.848,10.925-10.925c0-6.012-4.848-10.925-10.925-10.925h-10.279v-89.277c0-4.202-2.392-8.016-6.206-9.826 c-3.814-1.745-8.275-1.293-11.507,1.293L166.664,244.299z"/> </g> </g>
</svg>